<svg version="1.1" id="Layer_1" xmlns="http://www.w3.org/2000/svg" xmlns:xlink="http://www.w3.org/1999/xlink" x="0px" y="0px"
	 viewBox="0 0 132.3 90.6" enable-background="new 0 0 132.3 90.6" xml:space="preserve">
<g id="YGyi8F_3_">
	<g>
		<g>
			<path fill="#F05340" d="M80.4,90.6c-1.6-0.4-2.5-1.6-3.3-2.9c-2-3.4-4-6.7-5.9-10.1c-2.8-5-5.6-10.1-8.4-15.1
				c-0.2-0.3-0.3-0.4-0.7-0.3C54.8,64,47.4,65.9,40,67.8c-1.9,0.5-3.7,1-5.6,1.4c-1.6,0.4-3.1,0.2-4.5-0.7c-0.9-0.6-1.5-1.4-1.9-2.4
				c-2.8-6-5.6-12-8.3-18C14.8,37.6,10,27,5.1,16.5c-1.5-3.3-3-6.6-4.5-9.8C0.4,6.1,0.2,5.4,0,4.7c0-0.3,0-0.6,0-1
				c0.3-1,1-1.5,2-1.6C3.3,2,4.5,2,5.7,1.9c1.6-0.1,3.2-0.3,4.8-0.4c2-0.2,3.9-0.3,5.9-0.5c1.7-0.1,3.4-0.3,5.1-0.4
				c1.8-0.1,3.7-0.3,5.5-0.4c0.5,0,1-0.1,1.5-0.2c0.6,0,1.2,0,1.8,0c0.1,0,0.2,0.1,0.2,0.1c0.7,0.1,1.4,0.4,1.8,1
				c0.8,1.2,1.5,2.3,2.3,3.5c4.7,7.8,9.4,15.7,14.1,23.5c5.4,9,10.8,18,16.2,27.1c0.4,0.6,0.2,0.5,0.9,0.4
				c5.3-1.3,10.5-2.5,15.8-3.8c7.3-1.7,14.5-3.5,21.8-5.2c0.6-0.2,1.3-0.3,2-0.5c-0.1-0.1-0.1-0.3-0.2-0.4
				c-4.3-6.1-8.6-12.3-13-18.4c-0.8-1.2-0.6-2,0.8-2.4c1-0.3,2-0.4,3.1-0.6c2.7-0.5,5.4-0.9,8.2-1.4c2.8-0.5,5.6-0.9,8.3-1.4
				c0.4-0.1,0.9-0.1,1.3-0.1c0.6,0,1.1,0.3,1.6,0.7c0.5,0.5,1,1,1.5,1.5c4.8,6,9.6,11.9,14.4,17.9c0.4,0.5,0.8,1.1,1.1,1.6
				c0,0.1,0,0.1,0,0.2c-0.2,0.5-0.7,0.8-1.2,0.9c-0.1,0-0.3,0.1-0.4,0.1c-5.3,1.4-10.6,2.8-15.8,4.2c-0.7,0.2-1.4,0.4-2.1,0.6
				c0.1,0.1,0.1,0.2,0.2,0.3c2.2,3,4.5,6,6.7,9c3.1,4.2,6.2,8.3,9.2,12.5c0.2,0.3,0.4,0.7,0.6,1.1c0.2,0.5,0.1,1-0.4,1.3
				c-0.4,0.3-0.8,0.5-1.2,0.7c-1.5,0.6-3,1.2-4.6,1.7c-10.2,3.7-20.5,7.4-30.7,11C89.7,88,86.8,89,83.8,90c-0.7,0.2-1.4,0.4-2.1,0.6
				C81.3,90.6,80.8,90.6,80.4,90.6z M28.5,3.7c-0.8,0.1-1.4,0.1-2.1,0.2c-1.5,0.1-3.1,0.3-4.6,0.4c-1.8,0.2-3.6,0.3-5.5,0.5
				c-1.5,0.1-3.1,0.3-4.6,0.4c-1.6,0.1-3.2,0.3-4.8,0.4C6.2,5.6,6.1,5.8,6.3,6.5c0,0.1,0.1,0.2,0.1,0.2c1.9,4,3.9,8,5.8,12
				c2.5,5.2,5.1,10.5,7.6,15.7c3.3,6.7,6.5,13.4,9.8,20.2c1.3,2.6,2.5,5.3,3.8,7.9c0.3,0.6,0.4,0.7,1,0.5c0.7-0.2,1.5-0.3,2.2-0.5
				c6.6-1.6,13.1-3.1,19.7-4.7c0.9-0.2,1.8-0.4,2.7-0.7c0.4-0.1,0.6-0.4,0.4-0.8c-0.1-0.2-0.2-0.4-0.3-0.6
				C52.9,45,46.6,34.1,40.4,23.3C36.7,17,33.1,10.7,29.4,4.4C29.2,4,29,3.6,28.5,3.7z M68,60.5c0.1,0.2,0.1,0.3,0.2,0.4
				c1.8,3.1,3.6,6.2,5.4,9.3c2.4,4.1,4.8,8.1,7.1,12.1c0.2,0.4,0.5,0.7,0.8,1c0.4,0.4,0.9,0.5,1.4,0.3c0.7-0.3,1.4-0.5,2.2-0.8
				c11.8-4,23.7-8,35.5-12c0.5-0.2,1-0.3,1.5-0.6c0.5-0.2,0.6-0.5,0.3-0.9c-0.1-0.2-0.3-0.5-0.5-0.7c-3.7-5-7.3-10-11-15.1
				c-0.7-1-1.4-1.9-2.1-2.9c-0.4-0.6-0.7-0.7-1.3-0.5c-0.2,0.1-0.4,0.1-0.6,0.2c-6,1.6-11.9,3.1-17.9,4.7c-6.4,1.7-12.7,3.3-19.1,5
				C69.4,60.2,68.7,60.4,68,60.5z M113.3,25.2c-0.4,0.1-1,0.2-1.5,0.3c-4.5,0.8-9,1.6-13.5,2.4c-0.9,0.2-1,0.4-0.5,1.2
				c3.8,5.2,7.7,10.5,11.5,15.7c0.2,0.2,0.3,0.3,0.6,0.2c4.1-1,8.3-2,12.4-3.1c1.1-0.3,2.1-0.5,3.2-0.8c0.7-0.2,0.7-0.5,0.3-1
				c-2.9-3.7-5.8-7.3-8.6-11c-0.8-1.1-1.7-2.2-2.5-3.3C114.3,25.5,113.9,25.2,113.3,25.2z"/>
		</g>
	</g>
</g>
</svg>
