<svg version="1.1" id="Layer_1" xmlns="http://www.w3.org/2000/svg" xmlns:xlink="http://www.w3.org/1999/xlink" x="0px" y="0px"
	 viewBox="0 0 79.8 137.3" enable-background="new 0 0 79.8 137.3" xml:space="preserve">
<path fill="#222222" d="M61.6,101.6c0.3-0.2,0.6-0.5,1-0.8c5.1-4.2,18.5-15.2,17.1-33C78.9,58.6,77,52.3,74.8,45
	c-2.5-8.2-5.3-17.6-7-33.3L67.2,0l-1.9,0.1L66,11.8l0,0c1.7,15.9,4.5,25.4,7,33.7c2.2,7.2,4.1,13.5,4.8,22.4
	C79,83.1,68.5,93.3,62.9,98l0,0c-23.7,17.1-46.1,0-46.1,0l0,0C11.3,93.3,0.8,83.1,2,67.9c0.7-9,2.6-15.2,4.8-22.4
	c2.5-8.3,5.4-17.8,7-33.7l0.6-11.7L12.5,0l-0.6,11.6c-1.7,15.7-4.5,25.1-7,33.3c-2.2,7.3-4.1,13.7-4.8,22.8
	c-1.4,17.8,12,28.8,17.1,33c0.4,0.3,0.7,0.6,1,0.8c3.3,2.9,2.5,5.7,2.1,6.9l0,0.2c-0.2,0.7-2.1,4.6-3.5,7.6c-0.7,1.5-1.4,2.9-1.9,4
	c-0.2,0.4-0.4,0.8-0.6,1.3c-1.7,3.3-4.5,8.9,1,12.3c4.5,2.7,18,3.3,23.6,3.4v0c0.1,0,0.5,0,1.2,0c0.7,0,1.1,0,1.2,0v0
	c5.5-0.1,19.1-0.7,23.6-3.4c5.5-3.3,2.7-8.9,1-12.3c-0.2-0.4-0.4-0.9-0.6-1.3c-0.5-1.1-1.2-2.5-1.9-4c-1.5-3.1-3.3-6.9-3.5-7.6
	l0-0.2C59.1,107.3,58.2,104.4,61.6,101.6z"/>
<g>
	<defs>
		<ellipse id="SVGID_1_" cx="39.9" cy="68.2" rx="32.9" ry="32.4"/>
	</defs>
	<clipPath id="SVGID_2_">
		<use xlink:href="#SVGID_1_"  overflow="visible"/>
	</clipPath>
	<g clip-path="url(#SVGID_2_)">
		<path fill="#D88228" d="M6.9,74.8c0.4,8,5.2,14.2,13,19.9c3.2,2.3,10.3,6.6,20.2,6.3c6.9-0.2,13.1-2.3,19.9-6.8
			c12.8-11.2,13.6-19,13.1-29c0,0-2.8-28.4-28.8-1.7c-33,33.9-37.5,6.8-37.4,11.1"/>
		<path opacity="0.7" fill="#730E22" d="M45.7,77.4C65.1,101.5,73,72.2,73,72.2c-0.5,8-4.3,14.3-13.3,22.2C58.9,95,50.3,101,39,101
			c-6.9,0-13.5-2.2-19.6-6.6c0,0-11.5-7.2-12-20.9C7,60.7,26.6,53.6,45.7,77.4z"/>
	</g>
</g>
</svg>
